<?xml version="1.0" encoding="UTF-8" standalone="no"?>
<!-- Created with Inkscape (http://www.inkscape.org/) -->

<svg
   width="107.89395mm"
   height="26.633682mm"
   viewBox="0 0 107.89395 26.633682"
   version="1.1"
   id="svg5"
   inkscape:version="1.1 (c4e8f9e, 2021-05-24)"
   sodipodi:docname="prefix_fun.svg"
   xmlns:inkscape="http://www.inkscape.org/namespaces/inkscape"
   xmlns:sodipodi="http://sodipodi.sourceforge.net/DTD/sodipodi-0.dtd"
   xmlns="http://www.w3.org/2000/svg"
   xmlns:svg="http://www.w3.org/2000/svg">
  <sodipodi:namedview
     id="namedview7"
     pagecolor="#ffffff"
     bordercolor="#666666"
     borderopacity="1.0"
     inkscape:pageshadow="2"
     inkscape:pageopacity="0.0"
     inkscape:pagecheckerboard="0"
     inkscape:document-units="mm"
     showgrid="false"
     inkscape:snap-global="true"
     inkscape:zoom="2.3407192"
     inkscape:cx="159.13912"
     inkscape:cy="55.111266"
     inkscape:window-width="1502"
     inkscape:window-height="944"
     inkscape:window-x="2189"
     inkscape:window-y="23"
     inkscape:window-maximized="0"
     inkscape:current-layer="layer1" />
  <defs
     id="defs2" />
  <g
     inkscape:label="Capa 1"
     inkscape:groupmode="layer"
     id="layer1"
     transform="translate(-11.695458,-77.46439)">
    <g
       aria-label="a a b a a a b"
       id="text2498-7"
       style="font-size:2.82223px;line-height:1.25;font-family:'CMU Sans Serif';-inkscape-font-specification:'CMU Sans Serif';text-align:center;text-anchor:middle;stroke-width:0.264583"
       transform="matrix(1.3721545,0,0,1.3721545,-9.7486582,-30.260916)">
      <path
         d="m 23.331037,80.678743 q 0,-0.104732 0.07855,-0.181902 0.07993,-0.07855 0.208085,-0.115755 0.128158,-0.03859 0.250803,-0.0565 0.122646,-0.01929 0.24667,-0.01929 v -0.09509 q -0.0055,-0.180523 -0.07304,-0.26045 -0.07028,-0.08406 -0.177768,-0.08406 -0.21773,0 -0.423059,0.143316 l -0.01654,-0.188792 q 0.212218,-0.124023 0.442351,-0.124023 0.194304,0 0.325218,0.128158 0.132292,0.128157 0.143317,0.311437 v 0.861276 h -0.213597 v -0.09922 q -0.01102,0.01103 -0.05236,0.03721 -0.04134,0.02481 -0.159853,0.05926 -0.118512,0.03445 -0.256316,0.03445 -0.161231,0 -0.242536,-0.114377 -0.07993,-0.114378 -0.07993,-0.235645 z m 0.206706,-0.0028 q 0,0.07579 0.07442,0.126779 0.07441,0.05099 0.187413,0.05099 0.121268,0 0.217731,-0.05099 0.09784,-0.05099 0.09784,-0.172255 V 80.4527 q -0.08682,0 -0.177767,0.01102 -0.08957,0.01102 -0.186036,0.03445 -0.09508,0.02205 -0.154341,0.0689 -0.05926,0.04685 -0.05926,0.108866 z"
         id="path78928" />
      <path
         d="m 25.624099,80.678743 q 0,-0.104732 0.07855,-0.181902 0.07993,-0.07855 0.208085,-0.115755 0.128158,-0.03859 0.250803,-0.0565 0.122646,-0.01929 0.24667,-0.01929 v -0.09509 q -0.0055,-0.180523 -0.07304,-0.26045 -0.07028,-0.08406 -0.177768,-0.08406 -0.21773,0 -0.423059,0.143316 L 25.7178,79.82022 q 0.212218,-0.124023 0.442351,-0.124023 0.194304,0 0.325218,0.128158 0.132292,0.128157 0.143317,0.311437 v 0.861276 h -0.213597 v -0.09922 q -0.01102,0.01103 -0.05237,0.03721 -0.04134,0.02481 -0.159853,0.05926 -0.118512,0.03445 -0.256316,0.03445 -0.161231,0 -0.242536,-0.114377 -0.07993,-0.114378 -0.07993,-0.235645 z m 0.206706,-0.0028 q 0,0.07579 0.07441,0.126779 0.07441,0.05099 0.187413,0.05099 0.121268,0 0.217731,-0.05099 0.09784,-0.05099 0.09784,-0.172255 V 80.4527 q -0.08682,0 -0.177767,0.01102 -0.08957,0.01102 -0.186036,0.03445 -0.09509,0.02205 -0.154341,0.0689 -0.05926,0.04685 -0.05926,0.108866 z"
         style="fill:#cccccc"
         id="path78930" />
      <path
         d="m 28.021892,80.99707 v -2.038124 h 0.210841 v 0.917776 q 0.206706,-0.163987 0.451997,-0.163987 0.202573,0 0.332109,0.195682 0.130914,0.194304 0.130914,0.456132 0,0.285255 -0.157097,0.475425 -0.155719,0.188791 -0.370694,0.188791 -0.199816,0 -0.377583,-0.161231 v 0.129536 z m 0.220487,-0.374827 q 0,0.02205 0.0014,0.03445 0.0014,0.0124 0.0055,0.02481 0.0041,0.01102 0.0083,0.01654 0.0041,0.0055 0.01378,0.01929 0.0096,0.01378 0.01791,0.02618 0.09371,0.112999 0.231511,0.112999 0.150207,0 0.276987,-0.118512 0.12678,-0.118511 0.12678,-0.370693 0,-0.132292 -0.03721,-0.231511 -0.03583,-0.100597 -0.09646,-0.151585 -0.06063,-0.05099 -0.122646,-0.07441 -0.06201,-0.02481 -0.124024,-0.02481 -0.110243,0 -0.206706,0.06477 -0.09509,0.06477 -0.09509,0.144695 z"
         style="fill:#cccccc"
         id="path78932" />
      <path
         d="m 30.314954,80.678743 q 0,-0.104732 0.07855,-0.181902 0.07993,-0.07855 0.208084,-0.115755 0.128158,-0.03859 0.250804,-0.0565 0.122645,-0.01929 0.246669,-0.01929 v -0.09509 q -0.0055,-0.180523 -0.07304,-0.26045 -0.07028,-0.08406 -0.177767,-0.08406 -0.217731,0 -0.423059,0.143316 l -0.01654,-0.188792 q 0.212219,-0.124023 0.442352,-0.124023 0.194304,0 0.325218,0.128158 0.132292,0.128157 0.143316,0.311437 V 80.99707 H 31.10595 v -0.09922 q -0.01102,0.01103 -0.05236,0.03721 -0.04134,0.02481 -0.159853,0.05926 -0.118512,0.03445 -0.256316,0.03445 -0.161231,0 -0.242535,-0.114377 -0.07993,-0.114378 -0.07993,-0.235645 z m 0.206707,-0.0028 q 0,0.07579 0.07441,0.126779 0.07441,0.05099 0.187414,0.05099 0.121267,0 0.21773,-0.05099 0.09784,-0.05099 0.09784,-0.172255 V 80.4527 q -0.08682,0 -0.177767,0.01102 -0.08957,0.01102 -0.186036,0.03445 -0.09509,0.02205 -0.154341,0.0689 -0.05925,0.04685 -0.05925,0.108866 z"
         style="fill:#cccccc"
         id="path78934" />
      <path
         d="m 32.608016,80.678743 q 0,-0.104732 0.07855,-0.181902 0.07993,-0.07855 0.208084,-0.115755 0.128158,-0.03859 0.250804,-0.0565 0.122646,-0.01929 0.246669,-0.01929 v -0.09509 q -0.0055,-0.180523 -0.07304,-0.26045 -0.07028,-0.08406 -0.177767,-0.08406 -0.217731,0 -0.423059,0.143316 l -0.01654,-0.188792 q 0.212219,-0.124023 0.442352,-0.124023 0.194304,0 0.325218,0.128158 0.132292,0.128157 0.143316,0.311437 v 0.861276 h -0.213596 v -0.09922 q -0.01102,0.01103 -0.05237,0.03721 -0.04134,0.02481 -0.159853,0.05926 -0.118511,0.03445 -0.256316,0.03445 -0.161231,0 -0.242535,-0.114377 -0.07993,-0.114378 -0.07993,-0.235645 z m 0.206707,-0.0028 q 0,0.07579 0.07441,0.126779 0.07441,0.05099 0.187414,0.05099 0.121267,0 0.21773,-0.05099 0.09784,-0.05099 0.09784,-0.172255 V 80.4527 q -0.08682,0 -0.177767,0.01102 -0.08957,0.01102 -0.186036,0.03445 -0.09509,0.02205 -0.15434,0.0689 -0.05926,0.04685 -0.05926,0.108866 z"
         style="fill:#cccccc"
         id="path78936" />
      <path
         d="m 34.901078,80.678743 q 0,-0.104732 0.07855,-0.181902 0.07993,-0.07855 0.208084,-0.115755 0.128158,-0.03859 0.250804,-0.0565 0.122646,-0.01929 0.24667,-0.01929 v -0.09509 q -0.0055,-0.180523 -0.07304,-0.26045 -0.07028,-0.08406 -0.177767,-0.08406 -0.217731,0 -0.423059,0.143316 L 34.99478,79.82022 q 0.212218,-0.124023 0.442351,-0.124023 0.194304,0 0.325218,0.128158 0.132292,0.128157 0.143316,0.311437 v 0.861276 h -0.213596 v -0.09922 q -0.01102,0.01103 -0.05237,0.03721 -0.04134,0.02481 -0.159853,0.05926 -0.118511,0.03445 -0.256315,0.03445 -0.161231,0 -0.242536,-0.114377 -0.07993,-0.114378 -0.07993,-0.235645 z m 0.206706,-0.0028 q 0,0.07579 0.07441,0.126779 0.07442,0.05099 0.187414,0.05099 0.121268,0 0.217731,-0.05099 0.09784,-0.05099 0.09784,-0.172255 V 80.4527 q -0.08682,0 -0.177768,0.01102 -0.08957,0.01102 -0.186035,0.03445 -0.09509,0.02205 -0.154341,0.0689 -0.05926,0.04685 -0.05926,0.108866 z"
         style="fill:#cccccc"
         id="path78938" />
      <path
         d="m 37.298871,80.99707 v -2.038124 h 0.210841 v 0.917776 q 0.206706,-0.163987 0.451997,-0.163987 0.202573,0 0.332108,0.195682 0.130914,0.194304 0.130914,0.456132 0,0.285255 -0.157096,0.475425 -0.155719,0.188791 -0.370694,0.188791 -0.199816,0 -0.377583,-0.161231 v 0.129536 z m 0.220487,-0.374827 q 0,0.02205 0.0014,0.03445 0.0014,0.0124 0.0055,0.02481 0.0041,0.01102 0.0083,0.01654 0.0041,0.0055 0.01378,0.01929 0.0096,0.01378 0.01791,0.02618 0.09371,0.112999 0.231511,0.112999 0.150207,0 0.276987,-0.118512 0.12678,-0.118511 0.12678,-0.370693 0,-0.132292 -0.03721,-0.231511 -0.03583,-0.100597 -0.09646,-0.151585 -0.06063,-0.05099 -0.122646,-0.07441 -0.06201,-0.02481 -0.124024,-0.02481 -0.110243,0 -0.206706,0.06477 -0.09509,0.06477 -0.09509,0.144695 z"
         style="fill:#cccccc"
         id="path78940" />
    </g>
    <text
       xml:space="preserve"
       style="font-size:2.82223px;line-height:1.25;font-family:'CMU Sans Serif';-inkscape-font-specification:'CMU Sans Serif';text-align:end;text-anchor:end;stroke-width:0.264583"
       x="18.671106"
       y="80.522079"
       id="text23539"><tspan
         sodipodi:role="line"
         id="tspan23537"
         style="text-align:end;text-anchor:end;stroke-width:0.264583"
         x="18.671106"
         y="80.522079">$i=0$</tspan></text>
    <text
       xml:space="preserve"
       style="font-size:2.82223px;line-height:1.25;font-family:'CMU Sans Serif';-inkscape-font-specification:'CMU Sans Serif';text-align:start;text-anchor:start;stroke-width:0.264583"
       x="47.3531"
       y="80.208572"
       id="text23539-4"><tspan
         sodipodi:role="line"
         id="tspan23537-1"
         style="text-align:start;text-anchor:start;stroke-width:0.264583"
         x="47.3531"
         y="80.208572">$\pi(0)=0$</tspan></text>
    <text
       xml:space="preserve"
       style="font-size:2.82223px;line-height:1.25;font-family:'CMU Sans Serif';-inkscape-font-specification:'CMU Sans Serif';text-align:end;text-anchor:end;stroke-width:0.264583"
       x="18.671106"
       y="87.997543"
       id="text23539-2"><tspan
         sodipodi:role="line"
         id="tspan23537-2"
         style="text-align:end;text-anchor:end;stroke-width:0.264583"
         x="18.671106"
         y="87.997543">$i=1$</tspan></text>
    <text
       xml:space="preserve"
       style="font-size:2.82223px;line-height:1.25;font-family:'CMU Sans Serif';-inkscape-font-specification:'CMU Sans Serif';text-align:start;text-anchor:start;stroke-width:0.264583"
       x="47.3531"
       y="87.684044"
       id="text23539-4-6"><tspan
         sodipodi:role="line"
         id="tspan23537-1-6"
         style="text-align:start;text-anchor:start;stroke-width:0.264583"
         x="47.3531"
         y="87.684044">$\pi(1)=1$</tspan></text>
    <g
       id="g89541"
       transform="translate(-0.89909897,1.5316864)">
      <g
         aria-label="a a b a a a b"
         id="text2498-7-8"
         style="font-size:2.82223px;line-height:1.25;font-family:'CMU Sans Serif';-inkscape-font-specification:'CMU Sans Serif';text-align:center;text-anchor:middle;stroke-width:0.264583"
         transform="matrix(1.3721545,0,0,1.3721545,-8.1697108,-34.20145)">
        <path
           d="m 23.08649,87.718545 q 0,-0.104731 0.07855,-0.181901 0.07993,-0.07855 0.208084,-0.115756 0.128158,-0.03859 0.250804,-0.0565 0.122645,-0.01929 0.246669,-0.01929 v -0.09508 q -0.0055,-0.180524 -0.07304,-0.26045 -0.07028,-0.08406 -0.177768,-0.08406 -0.21773,0 -0.423058,0.143317 l -0.01654,-0.188792 q 0.212218,-0.124024 0.442351,-0.124024 0.194304,0 0.325218,0.128158 0.132292,0.128158 0.143317,0.311438 v 0.861276 H 23.87748 v -0.09922 q -0.01102,0.01102 -0.05237,0.03721 -0.04134,0.02481 -0.159853,0.05926 -0.118512,0.03445 -0.256316,0.03445 -0.161231,0 -0.242535,-0.114378 -0.07993,-0.114377 -0.07993,-0.235645 z m 0.206706,-0.0028 q 0,0.07579 0.07442,0.12678 0.07441,0.05099 0.187413,0.05099 0.121268,0 0.217731,-0.05099 0.09784,-0.05099 0.09784,-0.172255 v -0.177768 q -0.08682,0 -0.177767,0.01102 -0.08957,0.01102 -0.186036,0.03445 -0.09508,0.02205 -0.154341,0.0689 -0.05926,0.04685 -0.05926,0.108865 z"
           id="path78895" />
        <path
           d="m 25.379552,87.718545 q 0,-0.104731 0.07855,-0.181901 0.07993,-0.07855 0.208084,-0.115756 0.128158,-0.03859 0.250804,-0.0565 0.122645,-0.01929 0.246669,-0.01929 v -0.09508 q -0.0055,-0.180524 -0.07304,-0.26045 -0.07028,-0.08406 -0.177768,-0.08406 -0.21773,0 -0.423059,0.143317 l -0.01654,-0.188792 q 0.212218,-0.124024 0.442351,-0.124024 0.194304,0 0.325218,0.128158 0.132292,0.128158 0.143317,0.311438 v 0.861276 h -0.213597 v -0.09922 q -0.01102,0.01102 -0.05237,0.03721 -0.04134,0.02481 -0.159853,0.05926 -0.118512,0.03445 -0.256316,0.03445 -0.161231,0 -0.242535,-0.114378 -0.07993,-0.114377 -0.07993,-0.235645 z m 0.206706,-0.0028 q 0,0.07579 0.07441,0.12678 0.07441,0.05099 0.187413,0.05099 0.121268,0 0.217731,-0.05099 0.09784,-0.05099 0.09784,-0.172255 v -0.177768 q -0.08682,0 -0.177767,0.01102 -0.08957,0.01102 -0.186036,0.03445 -0.09509,0.02205 -0.154341,0.0689 -0.05926,0.04685 -0.05926,0.108865 z"
           style="fill:#000000"
           id="path78897" />
        <path
           d="m 27.777345,88.036873 v -2.038124 h 0.210841 v 0.917776 q 0.206706,-0.163987 0.451998,-0.163987 0.202572,0 0.332108,0.195682 0.130914,0.194304 0.130914,0.456132 0,0.285254 -0.157097,0.475424 -0.155719,0.188792 -0.370693,0.188792 -0.199817,0 -0.377584,-0.161231 v 0.129536 z m 0.220487,-0.374828 q 0,0.02205 0.0014,0.03445 0.0014,0.0124 0.0055,0.02481 0.0041,0.01103 0.0083,0.01654 0.0041,0.0055 0.01378,0.01929 0.0096,0.01378 0.01791,0.02618 0.09371,0.113 0.231512,0.113 0.150206,0 0.276986,-0.118512 Q 28.68,87.659291 28.68,87.40711 q 0,-0.132292 -0.03721,-0.231511 -0.03583,-0.100597 -0.09646,-0.151585 -0.06063,-0.05099 -0.122646,-0.07441 -0.06201,-0.02481 -0.124024,-0.02481 -0.110243,0 -0.206706,0.06477 -0.09509,0.06477 -0.09509,0.144694 z"
           style="fill:#cccccc"
           id="path78899" />
        <path
           d="m 30.070407,87.718545 q 0,-0.104731 0.07855,-0.181901 0.07993,-0.07855 0.208084,-0.115756 0.128158,-0.03859 0.250804,-0.0565 0.122646,-0.01929 0.246669,-0.01929 v -0.09508 q -0.0055,-0.180524 -0.07304,-0.26045 -0.07028,-0.08406 -0.177767,-0.08406 -0.217731,0 -0.423059,0.143317 l -0.01654,-0.188792 q 0.212219,-0.124024 0.442352,-0.124024 0.194304,0 0.325218,0.128158 0.132292,0.128158 0.143316,0.311438 v 0.861276 h -0.213596 v -0.09922 q -0.01103,0.01102 -0.05237,0.03721 -0.04134,0.02481 -0.159853,0.05926 -0.118512,0.03445 -0.256316,0.03445 -0.161231,0 -0.242535,-0.114378 -0.07993,-0.114377 -0.07993,-0.235645 z m 0.206707,-0.0028 q 0,0.07579 0.07441,0.12678 0.07441,0.05099 0.187414,0.05099 0.121267,0 0.21773,-0.05099 0.09784,-0.05099 0.09784,-0.172255 v -0.177768 q -0.08682,0 -0.177767,0.01102 -0.08957,0.01102 -0.186036,0.03445 -0.09509,0.02205 -0.154341,0.0689 -0.05926,0.04685 -0.05926,0.108865 z"
           style="fill:#cccccc"
           id="path78901" />
        <path
           d="m 32.36347,87.718545 q 0,-0.104731 0.07855,-0.181901 0.07993,-0.07855 0.208084,-0.115756 0.128158,-0.03859 0.250804,-0.0565 0.122646,-0.01929 0.24667,-0.01929 v -0.09508 q -0.0055,-0.180524 -0.07304,-0.26045 -0.07028,-0.08406 -0.177767,-0.08406 -0.217731,0 -0.423059,0.143317 l -0.01654,-0.188792 q 0.212219,-0.124024 0.442352,-0.124024 0.194304,0 0.325218,0.128158 0.132292,0.128158 0.143316,0.311438 v 0.861276 h -0.213596 v -0.09922 q -0.01102,0.01102 -0.05237,0.03721 -0.04134,0.02481 -0.159853,0.05926 -0.118511,0.03445 -0.256316,0.03445 -0.16123,0 -0.242535,-0.114378 -0.07993,-0.114377 -0.07993,-0.235645 z m 0.206706,-0.0028 q 0,0.07579 0.07441,0.12678 0.07441,0.05099 0.187414,0.05099 0.121268,0 0.217731,-0.05099 0.09784,-0.05099 0.09784,-0.172255 v -0.177768 q -0.08682,0 -0.177768,0.01102 -0.08957,0.01102 -0.186036,0.03445 -0.09508,0.02205 -0.15434,0.0689 -0.05926,0.04685 -0.05926,0.108865 z"
           style="fill:#cccccc"
           id="path78903" />
        <path
           d="m 34.656531,87.718545 q 0,-0.104731 0.07855,-0.181901 0.07993,-0.07855 0.208085,-0.115756 0.128158,-0.03859 0.250803,-0.0565 0.122646,-0.01929 0.24667,-0.01929 v -0.09508 q -0.0055,-0.180524 -0.07304,-0.26045 -0.07028,-0.08406 -0.177768,-0.08406 -0.217731,0 -0.423059,0.143317 l -0.01654,-0.188792 q 0.212218,-0.124024 0.442351,-0.124024 0.194304,0 0.325218,0.128158 0.132292,0.128158 0.143316,0.311438 v 0.861276 h -0.213596 v -0.09922 q -0.01102,0.01102 -0.05237,0.03721 -0.04134,0.02481 -0.159852,0.05926 -0.118512,0.03445 -0.256316,0.03445 -0.161231,0 -0.242536,-0.114378 -0.07993,-0.114377 -0.07993,-0.235645 z m 0.206706,-0.0028 q 0,0.07579 0.07441,0.12678 0.07441,0.05099 0.187414,0.05099 0.121268,0 0.217731,-0.05099 0.09784,-0.05099 0.09784,-0.172255 v -0.177768 q -0.08682,0 -0.177768,0.01102 -0.08957,0.01102 -0.186035,0.03445 -0.09508,0.02205 -0.154341,0.0689 -0.05926,0.04685 -0.05926,0.108865 z"
           style="fill:#cccccc"
           id="path78905" />
        <path
           d="m 37.054324,88.036873 v -2.038124 h 0.210841 v 0.917776 q 0.206706,-0.163987 0.451997,-0.163987 0.202573,0 0.332109,0.195682 0.130914,0.194304 0.130914,0.456132 0,0.285254 -0.157097,0.475424 -0.155719,0.188792 -0.370694,0.188792 -0.199816,0 -0.377583,-0.161231 v 0.129536 z m 0.220487,-0.374828 q 0,0.02205 0.0014,0.03445 0.0014,0.0124 0.0055,0.02481 0.0041,0.01103 0.0083,0.01654 0.0041,0.0055 0.01378,0.01929 0.0096,0.01378 0.01791,0.02618 0.09371,0.113 0.231511,0.113 0.150207,0 0.276987,-0.118512 0.12678,-0.118512 0.12678,-0.370693 0,-0.132292 -0.03721,-0.231511 -0.03583,-0.100597 -0.09646,-0.151585 -0.06063,-0.05099 -0.122646,-0.07441 -0.06201,-0.02481 -0.124024,-0.02481 -0.110243,0 -0.206706,0.06477 -0.09508,0.06477 -0.09508,0.144694 z"
           style="fill:#cccccc"
           id="path78907" />
      </g>
      <rect
         style="fill:none;stroke:#808080;stroke-width:0.255221;stroke-linecap:round;stroke-linejoin:round;stroke-miterlimit:4;stroke-dasharray:0.255221, 0.510441;stroke-dashoffset:0;stop-color:#000000"
         id="rect31374-9-6-8-6"
         width="2.7100554"
         height="4.082087"
         x="22.947538"
         y="83.405754"
         ry="0.70324218" />
      <rect
         style="fill:none;stroke:#808080;stroke-width:0.255221;stroke-linecap:round;stroke-linejoin:round;stroke-miterlimit:4;stroke-dasharray:0.255221, 0.510441;stroke-dashoffset:0;stop-color:#000000"
         id="rect31374-9-6-8-6-9"
         width="2.7100554"
         height="4.082087"
         x="26.033295"
         y="83.405754"
         ry="0.70324218" />
    </g>
    <g
       id="g89551"
       transform="translate(-1.2433856,-0.32771067)">
      <g
         aria-label="a a b a a a b"
         id="text2498-7-8-6"
         style="font-size:2.82223px;line-height:1.25;font-family:'CMU Sans Serif';-inkscape-font-specification:'CMU Sans Serif';text-align:center;text-anchor:middle;stroke-width:0.264583"
         transform="matrix(1.3721545,0,0,1.3721545,-8.1697108,-24.641973)">
        <path
           d="m 23.08649,87.718545 q 0,-0.104731 0.07855,-0.181901 0.07993,-0.07855 0.208084,-0.115756 0.128158,-0.03859 0.250804,-0.0565 0.122645,-0.01929 0.246669,-0.01929 v -0.09508 q -0.0055,-0.180524 -0.07304,-0.26045 -0.07028,-0.08406 -0.177768,-0.08406 -0.21773,0 -0.423058,0.143317 l -0.01654,-0.188792 q 0.212218,-0.124024 0.442351,-0.124024 0.194304,0 0.325218,0.128158 0.132292,0.128158 0.143317,0.311438 v 0.861276 H 23.87748 v -0.09922 q -0.01102,0.01102 -0.05237,0.03721 -0.04134,0.02481 -0.159853,0.05926 -0.118512,0.03445 -0.256316,0.03445 -0.161231,0 -0.242535,-0.114378 -0.07993,-0.114377 -0.07993,-0.235645 z m 0.206706,-0.0028 q 0,0.07579 0.07442,0.12678 0.07441,0.05099 0.187413,0.05099 0.121268,0 0.217731,-0.05099 0.09784,-0.05099 0.09784,-0.172255 v -0.177768 q -0.08682,0 -0.177767,0.01102 -0.08957,0.01102 -0.186036,0.03445 -0.09508,0.02205 -0.154341,0.0689 -0.05926,0.04685 -0.05926,0.108865 z"
           id="path78862" />
        <path
           d="m 25.379552,87.718545 q 0,-0.104731 0.07855,-0.181901 0.07993,-0.07855 0.208084,-0.115756 0.128158,-0.03859 0.250804,-0.0565 0.122645,-0.01929 0.246669,-0.01929 v -0.09508 q -0.0055,-0.180524 -0.07304,-0.26045 -0.07028,-0.08406 -0.177768,-0.08406 -0.21773,0 -0.423059,0.143317 l -0.01654,-0.188792 q 0.212218,-0.124024 0.442351,-0.124024 0.194304,0 0.325218,0.128158 0.132292,0.128158 0.143317,0.311438 v 0.861276 h -0.213597 v -0.09922 q -0.01102,0.01102 -0.05237,0.03721 -0.04134,0.02481 -0.159853,0.05926 -0.118512,0.03445 -0.256316,0.03445 -0.161231,0 -0.242535,-0.114378 -0.07993,-0.114377 -0.07993,-0.235645 z m 0.206706,-0.0028 q 0,0.07579 0.07441,0.12678 0.07441,0.05099 0.187413,0.05099 0.121268,0 0.217731,-0.05099 0.09784,-0.05099 0.09784,-0.172255 v -0.177768 q -0.08682,0 -0.177767,0.01102 -0.08957,0.01102 -0.186036,0.03445 -0.09509,0.02205 -0.154341,0.0689 -0.05926,0.04685 -0.05926,0.108865 z"
           style="fill:#000000"
           id="path78864" />
        <path
           d="m 27.777345,88.036873 v -2.038124 h 0.210841 v 0.917776 q 0.206706,-0.163987 0.451998,-0.163987 0.202572,0 0.332108,0.195682 0.130914,0.194304 0.130914,0.456132 0,0.285254 -0.157097,0.475424 -0.155719,0.188792 -0.370693,0.188792 -0.199817,0 -0.377584,-0.161231 v 0.129536 z m 0.220487,-0.374828 q 0,0.02205 0.0014,0.03445 0.0014,0.0124 0.0055,0.02481 0.0041,0.01103 0.0083,0.01654 0.0041,0.0055 0.01378,0.01929 0.0096,0.01378 0.01791,0.02618 0.09371,0.113 0.231512,0.113 0.150206,0 0.276986,-0.118512 Q 28.68,87.659291 28.68,87.40711 q 0,-0.132292 -0.03721,-0.231511 -0.03583,-0.100597 -0.09646,-0.151585 -0.06063,-0.05099 -0.122646,-0.07441 -0.06201,-0.02481 -0.124024,-0.02481 -0.110243,0 -0.206706,0.06477 -0.09509,0.06477 -0.09509,0.144694 z"
           style="fill:#000000"
           id="path78866" />
        <path
           d="m 30.070407,87.718545 q 0,-0.104731 0.07855,-0.181901 0.07993,-0.07855 0.208084,-0.115756 0.128158,-0.03859 0.250804,-0.0565 0.122646,-0.01929 0.246669,-0.01929 v -0.09508 q -0.0055,-0.180524 -0.07304,-0.26045 -0.07028,-0.08406 -0.177767,-0.08406 -0.217731,0 -0.423059,0.143317 l -0.01654,-0.188792 q 0.212219,-0.124024 0.442352,-0.124024 0.194304,0 0.325218,0.128158 0.132292,0.128158 0.143316,0.311438 v 0.861276 h -0.213596 v -0.09922 q -0.01103,0.01102 -0.05237,0.03721 -0.04134,0.02481 -0.159853,0.05926 -0.118512,0.03445 -0.256316,0.03445 -0.161231,0 -0.242535,-0.114378 -0.07993,-0.114377 -0.07993,-0.235645 z m 0.206707,-0.0028 q 0,0.07579 0.07441,0.12678 0.07441,0.05099 0.187414,0.05099 0.121267,0 0.21773,-0.05099 0.09784,-0.05099 0.09784,-0.172255 v -0.177768 q -0.08682,0 -0.177767,0.01102 -0.08957,0.01102 -0.186036,0.03445 -0.09509,0.02205 -0.154341,0.0689 -0.05926,0.04685 -0.05926,0.108865 z"
           style="fill:#cccccc"
           id="path78868" />
        <path
           d="m 32.36347,87.718545 q 0,-0.104731 0.07855,-0.181901 0.07993,-0.07855 0.208084,-0.115756 0.128158,-0.03859 0.250804,-0.0565 0.122646,-0.01929 0.24667,-0.01929 v -0.09508 q -0.0055,-0.180524 -0.07304,-0.26045 -0.07028,-0.08406 -0.177767,-0.08406 -0.217731,0 -0.423059,0.143317 l -0.01654,-0.188792 q 0.212219,-0.124024 0.442352,-0.124024 0.194304,0 0.325218,0.128158 0.132292,0.128158 0.143316,0.311438 v 0.861276 h -0.213596 v -0.09922 q -0.01102,0.01102 -0.05237,0.03721 -0.04134,0.02481 -0.159853,0.05926 -0.118511,0.03445 -0.256316,0.03445 -0.16123,0 -0.242535,-0.114378 -0.07993,-0.114377 -0.07993,-0.235645 z m 0.206706,-0.0028 q 0,0.07579 0.07441,0.12678 0.07441,0.05099 0.187414,0.05099 0.121268,0 0.217731,-0.05099 0.09784,-0.05099 0.09784,-0.172255 v -0.177768 q -0.08682,0 -0.177768,0.01102 -0.08957,0.01102 -0.186036,0.03445 -0.09508,0.02205 -0.15434,0.0689 -0.05926,0.04685 -0.05926,0.108865 z"
           style="fill:#cccccc"
           id="path78870" />
        <path
           d="m 34.656531,87.718545 q 0,-0.104731 0.07855,-0.181901 0.07993,-0.07855 0.208085,-0.115756 0.128158,-0.03859 0.250803,-0.0565 0.122646,-0.01929 0.24667,-0.01929 v -0.09508 q -0.0055,-0.180524 -0.07304,-0.26045 -0.07028,-0.08406 -0.177768,-0.08406 -0.217731,0 -0.423059,0.143317 l -0.01654,-0.188792 q 0.212218,-0.124024 0.442351,-0.124024 0.194304,0 0.325218,0.128158 0.132292,0.128158 0.143316,0.311438 v 0.861276 h -0.213596 v -0.09922 q -0.01102,0.01102 -0.05237,0.03721 -0.04134,0.02481 -0.159852,0.05926 -0.118512,0.03445 -0.256316,0.03445 -0.161231,0 -0.242536,-0.114378 -0.07993,-0.114377 -0.07993,-0.235645 z m 0.206706,-0.0028 q 0,0.07579 0.07441,0.12678 0.07441,0.05099 0.187414,0.05099 0.121268,0 0.217731,-0.05099 0.09784,-0.05099 0.09784,-0.172255 v -0.177768 q -0.08682,0 -0.177768,0.01102 -0.08957,0.01102 -0.186035,0.03445 -0.09508,0.02205 -0.154341,0.0689 -0.05926,0.04685 -0.05926,0.108865 z"
           style="fill:#cccccc"
           id="path78872" />
        <path
           d="m 37.054324,88.036873 v -2.038124 h 0.210841 v 0.917776 q 0.206706,-0.163987 0.451997,-0.163987 0.202573,0 0.332109,0.195682 0.130914,0.194304 0.130914,0.456132 0,0.285254 -0.157097,0.475424 -0.155719,0.188792 -0.370694,0.188792 -0.199816,0 -0.377583,-0.161231 v 0.129536 z m 0.220487,-0.374828 q 0,0.02205 0.0014,0.03445 0.0014,0.0124 0.0055,0.02481 0.0041,0.01103 0.0083,0.01654 0.0041,0.0055 0.01378,0.01929 0.0096,0.01378 0.01791,0.02618 0.09371,0.113 0.231511,0.113 0.150207,0 0.276987,-0.118512 0.12678,-0.118512 0.12678,-0.370693 0,-0.132292 -0.03721,-0.231511 -0.03583,-0.100597 -0.09646,-0.151585 -0.06063,-0.05099 -0.122646,-0.07441 -0.06201,-0.02481 -0.124024,-0.02481 -0.110243,0 -0.206706,0.06477 -0.09508,0.06477 -0.09508,0.144694 z"
           style="fill:#cccccc"
           id="path78874" />
      </g>
    </g>
    <text
       xml:space="preserve"
       style="font-size:2.82223px;line-height:1.25;font-family:'CMU Sans Serif';-inkscape-font-specification:'CMU Sans Serif';text-align:end;text-anchor:end;stroke-width:0.264583"
       x="18.671106"
       y="95.473015"
       id="text23539-2-5"><tspan
         sodipodi:role="line"
         id="tspan23537-2-6"
         style="text-align:end;text-anchor:end;stroke-width:0.264583"
         x="18.671106"
         y="95.473015">$i=2$</tspan></text>
    <text
       xml:space="preserve"
       style="font-size:2.82223px;line-height:1.25;font-family:'CMU Sans Serif';-inkscape-font-specification:'CMU Sans Serif';text-align:start;text-anchor:start;stroke-width:0.264583"
       x="47.3531"
       y="95.159508"
       id="text23539-4-6-2"><tspan
         sodipodi:role="line"
         id="tspan23537-1-6-8"
         style="text-align:start;text-anchor:start;stroke-width:0.264583"
         x="47.3531"
         y="95.159508">$\pi(2)=0$</tspan></text>
    <text
       xml:space="preserve"
       style="font-size:2.82223px;line-height:1.25;font-family:'CMU Sans Serif';-inkscape-font-specification:'CMU Sans Serif';text-align:end;text-anchor:end;stroke-width:0.264583"
       x="18.671106"
       y="102.94848"
       id="text23539-2-57"><tspan
         sodipodi:role="line"
         id="tspan23537-2-2"
         style="text-align:end;text-anchor:end;stroke-width:0.264583"
         x="18.671106"
         y="102.94848">$i=3$</tspan></text>
    <text
       xml:space="preserve"
       style="font-size:2.82223px;line-height:1.25;font-family:'CMU Sans Serif';-inkscape-font-specification:'CMU Sans Serif';text-align:start;text-anchor:start;stroke-width:0.264583"
       x="47.3531"
       y="102.63498"
       id="text23539-4-6-9"><tspan
         sodipodi:role="line"
         id="tspan23537-1-6-7"
         style="text-align:start;text-anchor:start;stroke-width:0.264583"
         x="47.3531"
         y="102.63498">$\pi(3)=1$</tspan></text>
    <g
       id="g89563"
       transform="translate(-0.85239182,-2.1870641)">
      <g
         aria-label="a a b a a a b"
         id="text2498-7-8-0"
         style="font-size:2.82223px;line-height:1.25;font-family:'CMU Sans Serif';-inkscape-font-specification:'CMU Sans Serif';text-align:center;text-anchor:middle;stroke-width:0.264583"
         transform="matrix(1.3721545,0,0,1.3721545,-8.1697108,-15.531762)">
        <path
           d="m 23.08649,87.718545 q 0,-0.104731 0.07855,-0.181901 0.07993,-0.07855 0.208084,-0.115756 0.128158,-0.03859 0.250804,-0.0565 0.122645,-0.01929 0.246669,-0.01929 v -0.09508 q -0.0055,-0.180524 -0.07304,-0.26045 -0.07028,-0.08406 -0.177768,-0.08406 -0.21773,0 -0.423058,0.143317 l -0.01654,-0.188792 q 0.212218,-0.124024 0.442351,-0.124024 0.194304,0 0.325218,0.128158 0.132292,0.128158 0.143317,0.311438 v 0.861276 H 23.87748 v -0.09922 q -0.01102,0.01102 -0.05237,0.03721 -0.04134,0.02481 -0.159853,0.05926 -0.118512,0.03445 -0.256316,0.03445 -0.161231,0 -0.242535,-0.114378 -0.07993,-0.114377 -0.07993,-0.235645 z m 0.206706,-0.0028 q 0,0.07579 0.07442,0.12678 0.07441,0.05099 0.187413,0.05099 0.121268,0 0.217731,-0.05099 0.09784,-0.05099 0.09784,-0.172255 v -0.177768 q -0.08682,0 -0.177767,0.01102 -0.08957,0.01102 -0.186036,0.03445 -0.09508,0.02205 -0.154341,0.0689 -0.05926,0.04685 -0.05926,0.108865 z"
           id="path76615" />
        <path
           d="m 25.379552,87.718545 q 0,-0.104731 0.07855,-0.181901 0.07993,-0.07855 0.208084,-0.115756 0.128158,-0.03859 0.250804,-0.0565 0.122645,-0.01929 0.246669,-0.01929 v -0.09508 q -0.0055,-0.180524 -0.07304,-0.26045 -0.07028,-0.08406 -0.177768,-0.08406 -0.21773,0 -0.423059,0.143317 l -0.01654,-0.188792 q 0.212218,-0.124024 0.442351,-0.124024 0.194304,0 0.325218,0.128158 0.132292,0.128158 0.143317,0.311438 v 0.861276 h -0.213597 v -0.09922 q -0.01102,0.01102 -0.05237,0.03721 -0.04134,0.02481 -0.159853,0.05926 -0.118512,0.03445 -0.256316,0.03445 -0.161231,0 -0.242535,-0.114378 -0.07993,-0.114377 -0.07993,-0.235645 z m 0.206706,-0.0028 q 0,0.07579 0.07441,0.12678 0.07441,0.05099 0.187413,0.05099 0.121268,0 0.217731,-0.05099 0.09784,-0.05099 0.09784,-0.172255 v -0.177768 q -0.08682,0 -0.177767,0.01102 -0.08957,0.01102 -0.186036,0.03445 -0.09509,0.02205 -0.154341,0.0689 -0.05926,0.04685 -0.05926,0.108865 z"
           style="fill:#000000"
           id="path76617" />
        <path
           d="m 27.777345,88.036873 v -2.038124 h 0.210841 v 0.917776 q 0.206706,-0.163987 0.451998,-0.163987 0.202572,0 0.332108,0.195682 0.130914,0.194304 0.130914,0.456132 0,0.285254 -0.157097,0.475424 -0.155719,0.188792 -0.370693,0.188792 -0.199817,0 -0.377584,-0.161231 v 0.129536 z m 0.220487,-0.374828 q 0,0.02205 0.0014,0.03445 0.0014,0.0124 0.0055,0.02481 0.0041,0.01103 0.0083,0.01654 0.0041,0.0055 0.01378,0.01929 0.0096,0.01378 0.01791,0.02618 0.09371,0.113 0.231512,0.113 0.150206,0 0.276986,-0.118512 Q 28.68,87.659291 28.68,87.40711 q 0,-0.132292 -0.03721,-0.231511 -0.03583,-0.100597 -0.09646,-0.151585 -0.06063,-0.05099 -0.122646,-0.07441 -0.06201,-0.02481 -0.124024,-0.02481 -0.110243,0 -0.206706,0.06477 -0.09509,0.06477 -0.09509,0.144694 z"
           style="fill:#000000"
           id="path76619" />
        <path
           d="m 30.070407,87.718545 q 0,-0.104731 0.07855,-0.181901 0.07993,-0.07855 0.208084,-0.115756 0.128158,-0.03859 0.250804,-0.0565 0.122646,-0.01929 0.246669,-0.01929 v -0.09508 q -0.0055,-0.180524 -0.07304,-0.26045 -0.07028,-0.08406 -0.177767,-0.08406 -0.217731,0 -0.423059,0.143317 l -0.01654,-0.188792 q 0.212219,-0.124024 0.442352,-0.124024 0.194304,0 0.325218,0.128158 0.132292,0.128158 0.143316,0.311438 v 0.861276 h -0.213596 v -0.09922 q -0.01103,0.01102 -0.05237,0.03721 -0.04134,0.02481 -0.159853,0.05926 -0.118512,0.03445 -0.256316,0.03445 -0.161231,0 -0.242535,-0.114378 -0.07993,-0.114377 -0.07993,-0.235645 z m 0.206707,-0.0028 q 0,0.07579 0.07441,0.12678 0.07441,0.05099 0.187414,0.05099 0.121267,0 0.21773,-0.05099 0.09784,-0.05099 0.09784,-0.172255 v -0.177768 q -0.08682,0 -0.177767,0.01102 -0.08957,0.01102 -0.186036,0.03445 -0.09509,0.02205 -0.154341,0.0689 -0.05926,0.04685 -0.05926,0.108865 z"
           style="fill:#000000"
           id="path76621" />
        <path
           d="m 32.36347,87.718545 q 0,-0.104731 0.07855,-0.181901 0.07993,-0.07855 0.208084,-0.115756 0.128158,-0.03859 0.250804,-0.0565 0.122646,-0.01929 0.24667,-0.01929 v -0.09508 q -0.0055,-0.180524 -0.07304,-0.26045 -0.07028,-0.08406 -0.177767,-0.08406 -0.217731,0 -0.423059,0.143317 l -0.01654,-0.188792 q 0.212219,-0.124024 0.442352,-0.124024 0.194304,0 0.325218,0.128158 0.132292,0.128158 0.143316,0.311438 v 0.861276 h -0.213596 v -0.09922 q -0.01102,0.01102 -0.05237,0.03721 -0.04134,0.02481 -0.159853,0.05926 -0.118511,0.03445 -0.256316,0.03445 -0.16123,0 -0.242535,-0.114378 -0.07993,-0.114377 -0.07993,-0.235645 z m 0.206706,-0.0028 q 0,0.07579 0.07441,0.12678 0.07441,0.05099 0.187414,0.05099 0.121268,0 0.217731,-0.05099 0.09784,-0.05099 0.09784,-0.172255 v -0.177768 q -0.08682,0 -0.177768,0.01102 -0.08957,0.01102 -0.186036,0.03445 -0.09508,0.02205 -0.15434,0.0689 -0.05926,0.04685 -0.05926,0.108865 z"
           style="fill:#cccccc"
           id="path76623" />
        <path
           d="m 34.656531,87.718545 q 0,-0.104731 0.07855,-0.181901 0.07993,-0.07855 0.208085,-0.115756 0.128158,-0.03859 0.250803,-0.0565 0.122646,-0.01929 0.24667,-0.01929 v -0.09508 q -0.0055,-0.180524 -0.07304,-0.26045 -0.07028,-0.08406 -0.177768,-0.08406 -0.217731,0 -0.423059,0.143317 l -0.01654,-0.188792 q 0.212218,-0.124024 0.442351,-0.124024 0.194304,0 0.325218,0.128158 0.132292,0.128158 0.143316,0.311438 v 0.861276 h -0.213596 v -0.09922 q -0.01102,0.01102 -0.05237,0.03721 -0.04134,0.02481 -0.159852,0.05926 -0.118512,0.03445 -0.256316,0.03445 -0.161231,0 -0.242536,-0.114378 -0.07993,-0.114377 -0.07993,-0.235645 z m 0.206706,-0.0028 q 0,0.07579 0.07441,0.12678 0.07441,0.05099 0.187414,0.05099 0.121268,0 0.217731,-0.05099 0.09784,-0.05099 0.09784,-0.172255 v -0.177768 q -0.08682,0 -0.177768,0.01102 -0.08957,0.01102 -0.186035,0.03445 -0.09508,0.02205 -0.154341,0.0689 -0.05926,0.04685 -0.05926,0.108865 z"
           style="fill:#cccccc"
           id="path76625" />
        <path
           d="m 37.054324,88.036873 v -2.038124 h 0.210841 v 0.917776 q 0.206706,-0.163987 0.451997,-0.163987 0.202573,0 0.332109,0.195682 0.130914,0.194304 0.130914,0.456132 0,0.285254 -0.157097,0.475424 -0.155719,0.188792 -0.370694,0.188792 -0.199816,0 -0.377583,-0.161231 v 0.129536 z m 0.220487,-0.374828 q 0,0.02205 0.0014,0.03445 0.0014,0.0124 0.0055,0.02481 0.0041,0.01103 0.0083,0.01654 0.0041,0.0055 0.01378,0.01929 0.0096,0.01378 0.01791,0.02618 0.09371,0.113 0.231511,0.113 0.150207,0 0.276987,-0.118512 0.12678,-0.118512 0.12678,-0.370693 0,-0.132292 -0.03721,-0.231511 -0.03583,-0.100597 -0.09646,-0.151585 -0.06063,-0.05099 -0.122646,-0.07441 -0.06201,-0.02481 -0.124024,-0.02481 -0.110243,0 -0.206706,0.06477 -0.09508,0.06477 -0.09508,0.144694 z"
           style="fill:#cccccc"
           id="path76627" />
      </g>
      <rect
         style="fill:none;stroke:#808080;stroke-width:0.255221;stroke-linecap:round;stroke-linejoin:round;stroke-miterlimit:4;stroke-dasharray:0.255221, 0.510441;stroke-dashoffset:0;stop-color:#000000"
         id="rect31374-9-6"
         width="2.7100554"
         height="4.082087"
         x="29.25865"
         y="102.07544"
         ry="0.70324218" />
      <rect
         style="fill:none;stroke:#808080;stroke-width:0.255221;stroke-linecap:round;stroke-linejoin:round;stroke-miterlimit:4;stroke-dasharray:0.255221, 0.510441;stroke-dashoffset:0;stop-color:#000000"
         id="rect31374-9-6-8"
         width="2.7100554"
         height="4.082087"
         x="22.854124"
         y="102.07544"
         ry="0.70324218" />
    </g>
    <text
       xml:space="preserve"
       style="font-size:2.82223px;line-height:1.25;font-family:'CMU Sans Serif';-inkscape-font-specification:'CMU Sans Serif';text-align:end;text-anchor:end;stroke-width:0.264583"
       x="77.37915"
       y="80.522079"
       id="text23539-2-57-1"><tspan
         sodipodi:role="line"
         id="tspan23537-2-2-8"
         style="text-align:end;text-anchor:end;stroke-width:0.264583"
         x="77.37915"
         y="80.522079">$i=4$</tspan></text>
    <text
       xml:space="preserve"
       style="font-size:2.82223px;line-height:1.25;font-family:'CMU Sans Serif';-inkscape-font-specification:'CMU Sans Serif';text-align:start;text-anchor:start;stroke-width:0.264583"
       x="106.17417"
       y="80.208572"
       id="text23539-4-6-9-7"><tspan
         sodipodi:role="line"
         id="tspan23537-1-6-7-1"
         style="text-align:start;text-anchor:start;stroke-width:0.264583"
         x="106.17417"
         y="80.208572">$\pi(4)=2$</tspan></text>
    <g
       id="g93350"
       transform="translate(5.5387178,3.9115201)">
      <g
         aria-label="a a b a a a b"
         id="text2498-7-8-0-3"
         style="font-size:2.82223px;line-height:1.25;font-family:'CMU Sans Serif';-inkscape-font-specification:'CMU Sans Serif';text-align:center;text-anchor:middle;stroke-width:0.264583"
         transform="matrix(1.2898843,0,0,1.2898843,46.886669,-36.882999)">
        <path
           d="m 23.08649,87.718545 q 0,-0.104731 0.07855,-0.181901 0.07993,-0.07855 0.208084,-0.115756 0.128158,-0.03859 0.250804,-0.0565 0.122645,-0.01929 0.246669,-0.01929 v -0.09508 q -0.0055,-0.180524 -0.07304,-0.26045 -0.07028,-0.08406 -0.177768,-0.08406 -0.21773,0 -0.423058,0.143317 l -0.01654,-0.188792 q 0.212218,-0.124024 0.442351,-0.124024 0.194304,0 0.325218,0.128158 0.132292,0.128158 0.143317,0.311438 v 0.861276 H 23.87748 v -0.09922 q -0.01102,0.01102 -0.05237,0.03721 -0.04134,0.02481 -0.159853,0.05926 -0.118512,0.03445 -0.256316,0.03445 -0.161231,0 -0.242535,-0.114378 -0.07993,-0.114377 -0.07993,-0.235645 z m 0.206706,-0.0028 q 0,0.07579 0.07442,0.12678 0.07441,0.05099 0.187413,0.05099 0.121268,0 0.217731,-0.05099 0.09784,-0.05099 0.09784,-0.172255 v -0.177768 q -0.08682,0 -0.177767,0.01102 -0.08957,0.01102 -0.186036,0.03445 -0.09508,0.02205 -0.154341,0.0689 -0.05926,0.04685 -0.05926,0.108865 z"
           id="path79061" />
        <path
           d="m 25.379552,87.718545 q 0,-0.104731 0.07855,-0.181901 0.07993,-0.07855 0.208084,-0.115756 0.128158,-0.03859 0.250804,-0.0565 0.122645,-0.01929 0.246669,-0.01929 v -0.09508 q -0.0055,-0.180524 -0.07304,-0.26045 -0.07028,-0.08406 -0.177768,-0.08406 -0.21773,0 -0.423059,0.143317 l -0.01654,-0.188792 q 0.212218,-0.124024 0.442351,-0.124024 0.194304,0 0.325218,0.128158 0.132292,0.128158 0.143317,0.311438 v 0.861276 h -0.213597 v -0.09922 q -0.01102,0.01102 -0.05237,0.03721 -0.04134,0.02481 -0.159853,0.05926 -0.118512,0.03445 -0.256316,0.03445 -0.161231,0 -0.242535,-0.114378 -0.07993,-0.114377 -0.07993,-0.235645 z m 0.206706,-0.0028 q 0,0.07579 0.07441,0.12678 0.07441,0.05099 0.187413,0.05099 0.121268,0 0.217731,-0.05099 0.09784,-0.05099 0.09784,-0.172255 v -0.177768 q -0.08682,0 -0.177767,0.01102 -0.08957,0.01102 -0.186036,0.03445 -0.09509,0.02205 -0.154341,0.0689 -0.05926,0.04685 -0.05926,0.108865 z"
           style="fill:#000000"
           id="path79063" />
        <path
           d="m 27.777345,88.036873 v -2.038124 h 0.210841 v 0.917776 q 0.206706,-0.163987 0.451998,-0.163987 0.202572,0 0.332108,0.195682 0.130914,0.194304 0.130914,0.456132 0,0.285254 -0.157097,0.475424 -0.155719,0.188792 -0.370693,0.188792 -0.199817,0 -0.377584,-0.161231 v 0.129536 z m 0.220487,-0.374828 q 0,0.02205 0.0014,0.03445 0.0014,0.0124 0.0055,0.02481 0.0041,0.01103 0.0083,0.01654 0.0041,0.0055 0.01378,0.01929 0.0096,0.01378 0.01791,0.02618 0.09371,0.113 0.231512,0.113 0.150206,0 0.276986,-0.118512 Q 28.68,87.659291 28.68,87.40711 q 0,-0.132292 -0.03721,-0.231511 -0.03583,-0.100597 -0.09646,-0.151585 -0.06063,-0.05099 -0.122646,-0.07441 -0.06201,-0.02481 -0.124024,-0.02481 -0.110243,0 -0.206706,0.06477 -0.09509,0.06477 -0.09509,0.144694 z"
           style="fill:#000000"
           id="path79065" />
        <path
           d="m 30.070407,87.718545 q 0,-0.104731 0.07855,-0.181901 0.07993,-0.07855 0.208084,-0.115756 0.128158,-0.03859 0.250804,-0.0565 0.122646,-0.01929 0.246669,-0.01929 v -0.09508 q -0.0055,-0.180524 -0.07304,-0.26045 -0.07028,-0.08406 -0.177767,-0.08406 -0.217731,0 -0.423059,0.143317 l -0.01654,-0.188792 q 0.212219,-0.124024 0.442352,-0.124024 0.194304,0 0.325218,0.128158 0.132292,0.128158 0.143316,0.311438 v 0.861276 h -0.213596 v -0.09922 q -0.01103,0.01102 -0.05237,0.03721 -0.04134,0.02481 -0.159853,0.05926 -0.118512,0.03445 -0.256316,0.03445 -0.161231,0 -0.242535,-0.114378 -0.07993,-0.114377 -0.07993,-0.235645 z m 0.206707,-0.0028 q 0,0.07579 0.07441,0.12678 0.07441,0.05099 0.187414,0.05099 0.121267,0 0.21773,-0.05099 0.09784,-0.05099 0.09784,-0.172255 v -0.177768 q -0.08682,0 -0.177767,0.01102 -0.08957,0.01102 -0.186036,0.03445 -0.09509,0.02205 -0.154341,0.0689 -0.05926,0.04685 -0.05926,0.108865 z"
           style="fill:#000000"
           id="path79067" />
        <path
           d="m 32.36347,87.718545 q 0,-0.104731 0.07855,-0.181901 0.07993,-0.07855 0.208084,-0.115756 0.128158,-0.03859 0.250804,-0.0565 0.122646,-0.01929 0.24667,-0.01929 v -0.09508 q -0.0055,-0.180524 -0.07304,-0.26045 -0.07028,-0.08406 -0.177767,-0.08406 -0.217731,0 -0.423059,0.143317 l -0.01654,-0.188792 q 0.212219,-0.124024 0.442352,-0.124024 0.194304,0 0.325218,0.128158 0.132292,0.128158 0.143316,0.311438 v 0.861276 h -0.213596 v -0.09922 q -0.01102,0.01102 -0.05237,0.03721 -0.04134,0.02481 -0.159853,0.05926 -0.118511,0.03445 -0.256316,0.03445 -0.16123,0 -0.242535,-0.114378 -0.07993,-0.114377 -0.07993,-0.235645 z m 0.206706,-0.0028 q 0,0.07579 0.07441,0.12678 0.07441,0.05099 0.187414,0.05099 0.121268,0 0.217731,-0.05099 0.09784,-0.05099 0.09784,-0.172255 v -0.177768 q -0.08682,0 -0.177768,0.01102 -0.08957,0.01102 -0.186036,0.03445 -0.09508,0.02205 -0.15434,0.0689 -0.05926,0.04685 -0.05926,0.108865 z"
           style="fill:#000000"
           id="path79069" />
        <path
           d="m 34.656531,87.718545 q 0,-0.104731 0.07855,-0.181901 0.07993,-0.07855 0.208085,-0.115756 0.128158,-0.03859 0.250803,-0.0565 0.122646,-0.01929 0.24667,-0.01929 v -0.09508 q -0.0055,-0.180524 -0.07304,-0.26045 -0.07028,-0.08406 -0.177768,-0.08406 -0.217731,0 -0.423059,0.143317 l -0.01654,-0.188792 q 0.212218,-0.124024 0.442351,-0.124024 0.194304,0 0.325218,0.128158 0.132292,0.128158 0.143316,0.311438 v 0.861276 h -0.213596 v -0.09922 q -0.01102,0.01102 -0.05237,0.03721 -0.04134,0.02481 -0.159852,0.05926 -0.118512,0.03445 -0.256316,0.03445 -0.161231,0 -0.242536,-0.114378 -0.07993,-0.114377 -0.07993,-0.235645 z m 0.206706,-0.0028 q 0,0.07579 0.07441,0.12678 0.07441,0.05099 0.187414,0.05099 0.121268,0 0.217731,-0.05099 0.09784,-0.05099 0.09784,-0.172255 v -0.177768 q -0.08682,0 -0.177768,0.01102 -0.08957,0.01102 -0.186035,0.03445 -0.09508,0.02205 -0.154341,0.0689 -0.05926,0.04685 -0.05926,0.108865 z"
           style="fill:#cccccc"
           id="path79071" />
        <path
           d="m 37.054324,88.036873 v -2.038124 h 0.210841 v 0.917776 q 0.206706,-0.163987 0.451997,-0.163987 0.202573,0 0.332109,0.195682 0.130914,0.194304 0.130914,0.456132 0,0.285254 -0.157097,0.475424 -0.155719,0.188792 -0.370694,0.188792 -0.199816,0 -0.377583,-0.161231 v 0.129536 z m 0.220487,-0.374828 q 0,0.02205 0.0014,0.03445 0.0014,0.0124 0.0055,0.02481 0.0041,0.01103 0.0083,0.01654 0.0041,0.0055 0.01378,0.01929 0.0096,0.01378 0.01791,0.02618 0.09371,0.113 0.231511,0.113 0.150207,0 0.276987,-0.118512 0.12678,-0.118512 0.12678,-0.370693 0,-0.132292 -0.03721,-0.231511 -0.03583,-0.100597 -0.09646,-0.151585 -0.06063,-0.05099 -0.122646,-0.07441 -0.06201,-0.02481 -0.124024,-0.02481 -0.110243,0 -0.206706,0.06477 -0.09508,0.06477 -0.09508,0.144694 z"
           style="fill:#cccccc"
           id="path79073" />
      </g>
      <rect
         style="fill:none;stroke:#808080;stroke-width:0.239918;stroke-linecap:round;stroke-linejoin:round;stroke-miterlimit:4;stroke-dasharray:0.239918, 0.479837;stroke-dashoffset:0;stop-color:#000000"
         id="rect31374-9-6-5"
         width="5.4410868"
         height="3.8373349"
         x="85.041939"
         y="73.672829"
         ry="0.66107792" />
      <rect
         style="fill:none;stroke:#808080;stroke-width:0.239918;stroke-linecap:round;stroke-linejoin:round;stroke-miterlimit:4;stroke-dasharray:0.239918, 0.479837;stroke-dashoffset:0;stop-color:#000000"
         id="rect31374-9-6-8-5"
         width="5.4870176"
         height="3.8373349"
         x="76.050407"
         y="73.672829"
         ry="0.66107792" />
    </g>
    <text
       xml:space="preserve"
       style="font-size:2.82223px;line-height:1.25;font-family:'CMU Sans Serif';-inkscape-font-specification:'CMU Sans Serif';text-align:end;text-anchor:end;stroke-width:0.264583"
       x="77.37915"
       y="87.997543"
       id="text23539-2-57-1-2"><tspan
         sodipodi:role="line"
         id="tspan23537-2-2-8-6"
         style="text-align:end;text-anchor:end;stroke-width:0.264583"
         x="77.37915"
         y="87.997543">$i=5$</tspan></text>
    <text
       xml:space="preserve"
       style="font-size:2.82223px;line-height:1.25;font-family:'CMU Sans Serif';-inkscape-font-specification:'CMU Sans Serif';text-align:start;text-anchor:start;stroke-width:0.264583"
       x="106.17417"
       y="87.684044"
       id="text23539-4-6-9-7-8"><tspan
         sodipodi:role="line"
         id="tspan23537-1-6-7-1-9"
         style="text-align:start;text-anchor:start;stroke-width:0.264583"
         x="106.17417"
         y="87.684044">$\pi(5)=2$</tspan></text>
    <g
       id="g93338"
       transform="translate(5.5387178,2.6118338)">
      <g
         aria-label="a a b a a a b"
         id="text2498-7-8-0-3-9"
         style="font-size:2.82223px;line-height:1.25;font-family:'CMU Sans Serif';-inkscape-font-specification:'CMU Sans Serif';text-align:center;text-anchor:middle;stroke-width:0.264583"
         transform="matrix(1.2898843,0,0,1.2898843,46.886669,-28.107847)">
        <path
           d="m 23.08649,87.718545 q 0,-0.104731 0.07855,-0.181901 0.07993,-0.07855 0.208084,-0.115756 0.128158,-0.03859 0.250804,-0.0565 0.122645,-0.01929 0.246669,-0.01929 v -0.09508 q -0.0055,-0.180524 -0.07304,-0.26045 -0.07028,-0.08406 -0.177768,-0.08406 -0.21773,0 -0.423058,0.143317 l -0.01654,-0.188792 q 0.212218,-0.124024 0.442351,-0.124024 0.194304,0 0.325218,0.128158 0.132292,0.128158 0.143317,0.311438 v 0.861276 H 23.87748 v -0.09922 q -0.01102,0.01102 -0.05237,0.03721 -0.04134,0.02481 -0.159853,0.05926 -0.118512,0.03445 -0.256316,0.03445 -0.161231,0 -0.242535,-0.114378 -0.07993,-0.114377 -0.07993,-0.235645 z m 0.206706,-0.0028 q 0,0.07579 0.07442,0.12678 0.07441,0.05099 0.187413,0.05099 0.121268,0 0.217731,-0.05099 0.09784,-0.05099 0.09784,-0.172255 v -0.177768 q -0.08682,0 -0.177767,0.01102 -0.08957,0.01102 -0.186036,0.03445 -0.09508,0.02205 -0.154341,0.0689 -0.05926,0.04685 -0.05926,0.108865 z"
           id="path79094" />
        <path
           d="m 25.379552,87.718545 q 0,-0.104731 0.07855,-0.181901 0.07993,-0.07855 0.208084,-0.115756 0.128158,-0.03859 0.250804,-0.0565 0.122645,-0.01929 0.246669,-0.01929 v -0.09508 q -0.0055,-0.180524 -0.07304,-0.26045 -0.07028,-0.08406 -0.177768,-0.08406 -0.21773,0 -0.423059,0.143317 l -0.01654,-0.188792 q 0.212218,-0.124024 0.442351,-0.124024 0.194304,0 0.325218,0.128158 0.132292,0.128158 0.143317,0.311438 v 0.861276 h -0.213597 v -0.09922 q -0.01102,0.01102 -0.05237,0.03721 -0.04134,0.02481 -0.159853,0.05926 -0.118512,0.03445 -0.256316,0.03445 -0.161231,0 -0.242535,-0.114378 -0.07993,-0.114377 -0.07993,-0.235645 z m 0.206706,-0.0028 q 0,0.07579 0.07441,0.12678 0.07441,0.05099 0.187413,0.05099 0.121268,0 0.217731,-0.05099 0.09784,-0.05099 0.09784,-0.172255 v -0.177768 q -0.08682,0 -0.177767,0.01102 -0.08957,0.01102 -0.186036,0.03445 -0.09509,0.02205 -0.154341,0.0689 -0.05926,0.04685 -0.05926,0.108865 z"
           style="fill:#000000"
           id="path79096" />
        <path
           d="m 27.777345,88.036873 v -2.038124 h 0.210841 v 0.917776 q 0.206706,-0.163987 0.451998,-0.163987 0.202572,0 0.332108,0.195682 0.130914,0.194304 0.130914,0.456132 0,0.285254 -0.157097,0.475424 -0.155719,0.188792 -0.370693,0.188792 -0.199817,0 -0.377584,-0.161231 v 0.129536 z m 0.220487,-0.374828 q 0,0.02205 0.0014,0.03445 0.0014,0.0124 0.0055,0.02481 0.0041,0.01103 0.0083,0.01654 0.0041,0.0055 0.01378,0.01929 0.0096,0.01378 0.01791,0.02618 0.09371,0.113 0.231512,0.113 0.150206,0 0.276986,-0.118512 Q 28.68,87.659291 28.68,87.40711 q 0,-0.132292 -0.03721,-0.231511 -0.03583,-0.100597 -0.09646,-0.151585 -0.06063,-0.05099 -0.122646,-0.07441 -0.06201,-0.02481 -0.124024,-0.02481 -0.110243,0 -0.206706,0.06477 -0.09509,0.06477 -0.09509,0.144694 z"
           style="fill:#000000"
           id="path79098" />
        <path
           d="m 30.070407,87.718545 q 0,-0.104731 0.07855,-0.181901 0.07993,-0.07855 0.208084,-0.115756 0.128158,-0.03859 0.250804,-0.0565 0.122646,-0.01929 0.246669,-0.01929 v -0.09508 q -0.0055,-0.180524 -0.07304,-0.26045 -0.07028,-0.08406 -0.177767,-0.08406 -0.217731,0 -0.423059,0.143317 l -0.01654,-0.188792 q 0.212219,-0.124024 0.442352,-0.124024 0.194304,0 0.325218,0.128158 0.132292,0.128158 0.143316,0.311438 v 0.861276 h -0.213596 v -0.09922 q -0.01103,0.01102 -0.05237,0.03721 -0.04134,0.02481 -0.159853,0.05926 -0.118512,0.03445 -0.256316,0.03445 -0.161231,0 -0.242535,-0.114378 -0.07993,-0.114377 -0.07993,-0.235645 z m 0.206707,-0.0028 q 0,0.07579 0.07441,0.12678 0.07441,0.05099 0.187414,0.05099 0.121267,0 0.21773,-0.05099 0.09784,-0.05099 0.09784,-0.172255 v -0.177768 q -0.08682,0 -0.177767,0.01102 -0.08957,0.01102 -0.186036,0.03445 -0.09509,0.02205 -0.154341,0.0689 -0.05926,0.04685 -0.05926,0.108865 z"
           style="fill:#000000"
           id="path79100" />
        <path
           d="m 32.36347,87.718545 q 0,-0.104731 0.07855,-0.181901 0.07993,-0.07855 0.208084,-0.115756 0.128158,-0.03859 0.250804,-0.0565 0.122646,-0.01929 0.24667,-0.01929 v -0.09508 q -0.0055,-0.180524 -0.07304,-0.26045 -0.07028,-0.08406 -0.177767,-0.08406 -0.217731,0 -0.423059,0.143317 l -0.01654,-0.188792 q 0.212219,-0.124024 0.442352,-0.124024 0.194304,0 0.325218,0.128158 0.132292,0.128158 0.143316,0.311438 v 0.861276 h -0.213596 v -0.09922 q -0.01102,0.01102 -0.05237,0.03721 -0.04134,0.02481 -0.159853,0.05926 -0.118511,0.03445 -0.256316,0.03445 -0.16123,0 -0.242535,-0.114378 -0.07993,-0.114377 -0.07993,-0.235645 z m 0.206706,-0.0028 q 0,0.07579 0.07441,0.12678 0.07441,0.05099 0.187414,0.05099 0.121268,0 0.217731,-0.05099 0.09784,-0.05099 0.09784,-0.172255 v -0.177768 q -0.08682,0 -0.177768,0.01102 -0.08957,0.01102 -0.186036,0.03445 -0.09508,0.02205 -0.15434,0.0689 -0.05926,0.04685 -0.05926,0.108865 z"
           style="fill:#000000"
           id="path79102" />
        <path
           d="m 34.656531,87.718545 q 0,-0.104731 0.07855,-0.181901 0.07993,-0.07855 0.208085,-0.115756 0.128158,-0.03859 0.250803,-0.0565 0.122646,-0.01929 0.24667,-0.01929 v -0.09508 q -0.0055,-0.180524 -0.07304,-0.26045 -0.07028,-0.08406 -0.177768,-0.08406 -0.217731,0 -0.423059,0.143317 l -0.01654,-0.188792 q 0.212218,-0.124024 0.442351,-0.124024 0.194304,0 0.325218,0.128158 0.132292,0.128158 0.143316,0.311438 v 0.861276 h -0.213596 v -0.09922 q -0.01102,0.01102 -0.05237,0.03721 -0.04134,0.02481 -0.159852,0.05926 -0.118512,0.03445 -0.256316,0.03445 -0.161231,0 -0.242536,-0.114378 -0.07993,-0.114377 -0.07993,-0.235645 z m 0.206706,-0.0028 q 0,0.07579 0.07441,0.12678 0.07441,0.05099 0.187414,0.05099 0.121268,0 0.217731,-0.05099 0.09784,-0.05099 0.09784,-0.172255 v -0.177768 q -0.08682,0 -0.177768,0.01102 -0.08957,0.01102 -0.186035,0.03445 -0.09508,0.02205 -0.154341,0.0689 -0.05926,0.04685 -0.05926,0.108865 z"
           style="fill:#000000"
           id="path79104" />
        <path
           d="m 37.054324,88.036873 v -2.038124 h 0.210841 v 0.917776 q 0.206706,-0.163987 0.451997,-0.163987 0.202573,0 0.332109,0.195682 0.130914,0.194304 0.130914,0.456132 0,0.285254 -0.157097,0.475424 -0.155719,0.188792 -0.370694,0.188792 -0.199816,0 -0.377583,-0.161231 v 0.129536 z m 0.220487,-0.374828 q 0,0.02205 0.0014,0.03445 0.0014,0.0124 0.0055,0.02481 0.0041,0.01103 0.0083,0.01654 0.0041,0.0055 0.01378,0.01929 0.0096,0.01378 0.01791,0.02618 0.09371,0.113 0.231511,0.113 0.150207,0 0.276987,-0.118512 0.12678,-0.118512 0.12678,-0.370693 0,-0.132292 -0.03721,-0.231511 -0.03583,-0.100597 -0.09646,-0.151585 -0.06063,-0.05099 -0.122646,-0.07441 -0.06201,-0.02481 -0.124024,-0.02481 -0.110243,0 -0.206706,0.06477 -0.09508,0.06477 -0.09508,0.144694 z"
           style="fill:#cccccc"
           id="path79106" />
      </g>
      <rect
         style="fill:none;stroke:#808080;stroke-width:0.239918;stroke-linecap:round;stroke-linejoin:round;stroke-miterlimit:4;stroke-dasharray:0.239918, 0.479837;stroke-dashoffset:0;stop-color:#000000"
         id="rect31374-9-6-5-1"
         width="5.4410868"
         height="3.8373349"
         x="88.050285"
         y="82.447983"
         ry="0.66107792" />
      <rect
         style="fill:none;stroke:#808080;stroke-width:0.239918;stroke-linecap:round;stroke-linejoin:round;stroke-miterlimit:4;stroke-dasharray:0.239918, 0.479837;stroke-dashoffset:0;stop-color:#000000"
         id="rect31374-9-6-8-5-4"
         width="5.4870176"
         height="3.8373349"
         x="76.050407"
         y="82.447983"
         ry="0.66107792" />
    </g>
    <text
       xml:space="preserve"
       style="font-size:2.82223px;line-height:1.25;font-family:'CMU Sans Serif';-inkscape-font-specification:'CMU Sans Serif';text-align:end;text-anchor:end;stroke-width:0.264583"
       x="77.37915"
       y="95.473015"
       id="text23539-2-57-1-2-7"><tspan
         sodipodi:role="line"
         id="tspan23537-2-2-8-6-8"
         style="text-align:end;text-anchor:end;stroke-width:0.264583"
         x="77.37915"
         y="95.473015">$i=6$</tspan></text>
    <text
       xml:space="preserve"
       style="font-size:2.82223px;line-height:1.25;font-family:'CMU Sans Serif';-inkscape-font-specification:'CMU Sans Serif';text-align:start;text-anchor:start;stroke-width:0.264583"
       x="106.17417"
       y="95.159508"
       id="text23539-4-6-9-7-8-4"><tspan
         sodipodi:role="line"
         id="tspan23537-1-6-7-1-9-0"
         style="text-align:start;text-anchor:start;stroke-width:0.264583"
         x="106.17417"
         y="95.159508">$\pi(6)=3$</tspan></text>
    <g
       id="g93326"
       transform="translate(5.5387178,1.3121394)">
      <g
         aria-label="a a b a a a b"
         id="text2498-7-8-0-3-9-7"
         style="font-size:2.82223px;line-height:1.25;font-family:'CMU Sans Serif';-inkscape-font-specification:'CMU Sans Serif';text-align:center;text-anchor:middle;stroke-width:0.264583"
         transform="matrix(1.2898843,0,0,1.2898843,46.886669,-19.332687)">
        <path
           d="m 23.08649,87.718545 q 0,-0.104731 0.07855,-0.181901 0.07993,-0.07855 0.208084,-0.115756 0.128158,-0.03859 0.250804,-0.0565 0.122645,-0.01929 0.246669,-0.01929 v -0.09508 q -0.0055,-0.180524 -0.07304,-0.26045 -0.07028,-0.08406 -0.177768,-0.08406 -0.21773,0 -0.423058,0.143317 l -0.01654,-0.188792 q 0.212218,-0.124024 0.442351,-0.124024 0.194304,0 0.325218,0.128158 0.132292,0.128158 0.143317,0.311438 v 0.861276 H 23.87748 v -0.09922 q -0.01102,0.01102 -0.05237,0.03721 -0.04134,0.02481 -0.159853,0.05926 -0.118512,0.03445 -0.256316,0.03445 -0.161231,0 -0.242535,-0.114378 -0.07993,-0.114377 -0.07993,-0.235645 z m 0.206706,-0.0028 q 0,0.07579 0.07442,0.12678 0.07441,0.05099 0.187413,0.05099 0.121268,0 0.217731,-0.05099 0.09784,-0.05099 0.09784,-0.172255 v -0.177768 q -0.08682,0 -0.177767,0.01102 -0.08957,0.01102 -0.186036,0.03445 -0.09508,0.02205 -0.154341,0.0689 -0.05926,0.04685 -0.05926,0.108865 z"
           id="path79127" />
        <path
           d="m 25.379552,87.718545 q 0,-0.104731 0.07855,-0.181901 0.07993,-0.07855 0.208084,-0.115756 0.128158,-0.03859 0.250804,-0.0565 0.122645,-0.01929 0.246669,-0.01929 v -0.09508 q -0.0055,-0.180524 -0.07304,-0.26045 -0.07028,-0.08406 -0.177768,-0.08406 -0.21773,0 -0.423059,0.143317 l -0.01654,-0.188792 q 0.212218,-0.124024 0.442351,-0.124024 0.194304,0 0.325218,0.128158 0.132292,0.128158 0.143317,0.311438 v 0.861276 h -0.213597 v -0.09922 q -0.01102,0.01102 -0.05237,0.03721 -0.04134,0.02481 -0.159853,0.05926 -0.118512,0.03445 -0.256316,0.03445 -0.161231,0 -0.242535,-0.114378 -0.07993,-0.114377 -0.07993,-0.235645 z m 0.206706,-0.0028 q 0,0.07579 0.07441,0.12678 0.07441,0.05099 0.187413,0.05099 0.121268,0 0.217731,-0.05099 0.09784,-0.05099 0.09784,-0.172255 v -0.177768 q -0.08682,0 -0.177767,0.01102 -0.08957,0.01102 -0.186036,0.03445 -0.09509,0.02205 -0.154341,0.0689 -0.05926,0.04685 -0.05926,0.108865 z"
           id="path79129" />
        <path
           d="m 27.777345,88.036873 v -2.038124 h 0.210841 v 0.917776 q 0.206706,-0.163987 0.451998,-0.163987 0.202572,0 0.332108,0.195682 0.130914,0.194304 0.130914,0.456132 0,0.285254 -0.157097,0.475424 -0.155719,0.188792 -0.370693,0.188792 -0.199817,0 -0.377584,-0.161231 v 0.129536 z m 0.220487,-0.374828 q 0,0.02205 0.0014,0.03445 0.0014,0.0124 0.0055,0.02481 0.0041,0.01103 0.0083,0.01654 0.0041,0.0055 0.01378,0.01929 0.0096,0.01378 0.01791,0.02618 0.09371,0.113 0.231512,0.113 0.150206,0 0.276986,-0.118512 Q 28.68,87.659291 28.68,87.40711 q 0,-0.132292 -0.03721,-0.231511 -0.03583,-0.100597 -0.09646,-0.151585 -0.06063,-0.05099 -0.122646,-0.07441 -0.06201,-0.02481 -0.124024,-0.02481 -0.110243,0 -0.206706,0.06477 -0.09509,0.06477 -0.09509,0.144694 z"
           style="fill:#000000"
           id="path79131" />
        <path
           d="m 30.070407,87.718545 q 0,-0.104731 0.07855,-0.181901 0.07993,-0.07855 0.208084,-0.115756 0.128158,-0.03859 0.250804,-0.0565 0.122646,-0.01929 0.246669,-0.01929 v -0.09508 q -0.0055,-0.180524 -0.07304,-0.26045 -0.07028,-0.08406 -0.177767,-0.08406 -0.217731,0 -0.423059,0.143317 l -0.01654,-0.188792 q 0.212219,-0.124024 0.442352,-0.124024 0.194304,0 0.325218,0.128158 0.132292,0.128158 0.143316,0.311438 v 0.861276 h -0.213596 v -0.09922 q -0.01103,0.01102 -0.05237,0.03721 -0.04134,0.02481 -0.159853,0.05926 -0.118512,0.03445 -0.256316,0.03445 -0.161231,0 -0.242535,-0.114378 -0.07993,-0.114377 -0.07993,-0.235645 z m 0.206707,-0.0028 q 0,0.07579 0.07441,0.12678 0.07441,0.05099 0.187414,0.05099 0.121267,0 0.21773,-0.05099 0.09784,-0.05099 0.09784,-0.172255 v -0.177768 q -0.08682,0 -0.177767,0.01102 -0.08957,0.01102 -0.186036,0.03445 -0.09509,0.02205 -0.154341,0.0689 -0.05926,0.04685 -0.05926,0.108865 z"
           style="fill:#000000"
           id="path79133" />
        <path
           d="m 32.36347,87.718545 q 0,-0.104731 0.07855,-0.181901 0.07993,-0.07855 0.208084,-0.115756 0.128158,-0.03859 0.250804,-0.0565 0.122646,-0.01929 0.24667,-0.01929 v -0.09508 q -0.0055,-0.180524 -0.07304,-0.26045 -0.07028,-0.08406 -0.177767,-0.08406 -0.217731,0 -0.423059,0.143317 l -0.01654,-0.188792 q 0.212219,-0.124024 0.442352,-0.124024 0.194304,0 0.325218,0.128158 0.132292,0.128158 0.143316,0.311438 v 0.861276 h -0.213596 v -0.09922 q -0.01102,0.01102 -0.05237,0.03721 -0.04134,0.02481 -0.159853,0.05926 -0.118511,0.03445 -0.256316,0.03445 -0.16123,0 -0.242535,-0.114378 -0.07993,-0.114377 -0.07993,-0.235645 z m 0.206706,-0.0028 q 0,0.07579 0.07441,0.12678 0.07441,0.05099 0.187414,0.05099 0.121268,0 0.217731,-0.05099 0.09784,-0.05099 0.09784,-0.172255 v -0.177768 q -0.08682,0 -0.177768,0.01102 -0.08957,0.01102 -0.186036,0.03445 -0.09508,0.02205 -0.15434,0.0689 -0.05926,0.04685 -0.05926,0.108865 z"
           style="fill:#000000"
           id="path79135" />
        <path
           d="m 34.656531,87.718545 q 0,-0.104731 0.07855,-0.181901 0.07993,-0.07855 0.208085,-0.115756 0.128158,-0.03859 0.250803,-0.0565 0.122646,-0.01929 0.24667,-0.01929 v -0.09508 q -0.0055,-0.180524 -0.07304,-0.26045 -0.07028,-0.08406 -0.177768,-0.08406 -0.217731,0 -0.423059,0.143317 l -0.01654,-0.188792 q 0.212218,-0.124024 0.442351,-0.124024 0.194304,0 0.325218,0.128158 0.132292,0.128158 0.143316,0.311438 v 0.861276 h -0.213596 v -0.09922 q -0.01102,0.01102 -0.05237,0.03721 -0.04134,0.02481 -0.159852,0.05926 -0.118512,0.03445 -0.256316,0.03445 -0.161231,0 -0.242536,-0.114378 -0.07993,-0.114377 -0.07993,-0.235645 z m 0.206706,-0.0028 q 0,0.07579 0.07441,0.12678 0.07441,0.05099 0.187414,0.05099 0.121268,0 0.217731,-0.05099 0.09784,-0.05099 0.09784,-0.172255 v -0.177768 q -0.08682,0 -0.177768,0.01102 -0.08957,0.01102 -0.186035,0.03445 -0.09508,0.02205 -0.154341,0.0689 -0.05926,0.04685 -0.05926,0.108865 z"
           style="fill:#000000"
           id="path79137" />
        <path
           d="m 37.054324,88.036873 v -2.038124 h 0.210841 v 0.917776 q 0.206706,-0.163987 0.451997,-0.163987 0.202573,0 0.332109,0.195682 0.130914,0.194304 0.130914,0.456132 0,0.285254 -0.157097,0.475424 -0.155719,0.188792 -0.370694,0.188792 -0.199816,0 -0.377583,-0.161231 v 0.129536 z m 0.220487,-0.374828 q 0,0.02205 0.0014,0.03445 0.0014,0.0124 0.0055,0.02481 0.0041,0.01103 0.0083,0.01654 0.0041,0.0055 0.01378,0.01929 0.0096,0.01378 0.01791,0.02618 0.09371,0.113 0.231511,0.113 0.150207,0 0.276987,-0.118512 0.12678,-0.118512 0.12678,-0.370693 0,-0.132292 -0.03721,-0.231511 -0.03583,-0.100597 -0.09646,-0.151585 -0.06063,-0.05099 -0.122646,-0.07441 -0.06201,-0.02481 -0.124024,-0.02481 -0.110243,0 -0.206706,0.06477 -0.09508,0.06477 -0.09508,0.144694 z"
           id="path79139" />
      </g>
      <rect
         style="fill:none;stroke:#808080;stroke-width:0.239918;stroke-linecap:round;stroke-linejoin:round;stroke-miterlimit:4;stroke-dasharray:0.239918, 0.479837;stroke-dashoffset:0;stop-color:#000000"
         id="rect31374-9-6-5-1-0"
         width="8.7746534"
         height="3.8373349"
         x="87.887672"
         y="91.223145"
         ry="0.66107792" />
      <rect
         style="fill:none;stroke:#808080;stroke-width:0.239918;stroke-linecap:round;stroke-linejoin:round;stroke-miterlimit:4;stroke-dasharray:0.239918, 0.479837;stroke-dashoffset:0;stop-color:#000000"
         id="rect31374-9-6-8-5-4-6"
         width="8.6579733"
         height="3.8373349"
         x="76.050407"
         y="91.223145"
         ry="0.66107792" />
    </g>
  </g>
</svg>
